# xmcd
#
# Track frame offsets: 
#        150
#        17359
#        35756
#        52716
#        70298
#        86928
#        104879
#        119855
#        132325
#        146199
#
# Disc length: 2224 seconds
#
# Revision: 1
# Processed by: cddbd v1.5.2PL0 Copyright (c) Steve Scherf et al.
# Submitted via: ExactAudioCopyFreeDBPlugin 1.0
#
DISCID=9a08ae0a
DTITLE=Otis Clay and Johnny Rawls - Soul Brothers
DYEAR=2014
DGENRE=Blues
TTITLE0=Only You Know and I Know
TTITLE1=Momma Didn't Raise No Fool
TTITLE2=Voodoo Queen
TTITLE3=What Becomes of the Brokenhearted
TTITLE4=Living On Borrowed Time
TTITLE5=Turn Back The Hands of Time
TTITLE6=Road Dog
TTITLE7=Poor Little Rich Girl
TTITLE8=Hallelujah Lord
TTITLE9=Waiting For Dreams
EXTD=
EXTT0=
EXTT1=
EXTT2=
EXTT3=
EXTT4=
EXTT5=
EXTT6=
EXTT7=
EXTT8=
EXTT9=
PLAYORDER=
